<mxfile host="drawio-plugin" modified="2022-11-29T11:17:30.722Z" agent="5.0 (X11; Linux x86_64) AppleWebKit/537.36 (KHTML, like Gecko) Chrome/98.0.4758.102 Safari/537.36" etag="ppfvgswbahrvneO3yHsP" version="15.5.4" type="embed"><diagram id="23iRSUPoRavnBvh4doch" name="Page-1"><mxGraphModel dx="1105" dy="750" grid="1" gridSize="10" guides="1" tooltips="1" connect="1" arrows="1" fold="1" page="1" pageScale="1" pageWidth="827" pageHeight="1169" math="0" shadow="0"><root><mxCell id="0"/><mxCell id="1" parent="0"/><mxCell id="2" value="invoke Notify" style="ellipse;whiteSpace=wrap;html=1;" vertex="1" parent="1"><mxGeometry x="320" y="570" width="120" height="80" as="geometry"/></mxCell><mxCell id="4" value="" style="endArrow=none;html=1;rounded=0;exitX=0.5;exitY=0.5;exitDx=0;exitDy=0;exitPerimeter=0;" edge="1" parent="1" source="5" target="2"><mxGeometry width="50" height="50" relative="1" as="geometry"><mxPoint x="80" y="314.50704225352115" as="sourcePoint"/><mxPoint x="200" y="350" as="targetPoint"/></mxGeometry></mxCell><mxCell id="5" value="Kafka MQ" style="shape=umlActor;verticalLabelPosition=bottom;verticalAlign=top;html=1;outlineConnect=0;" vertex="1" parent="1"><mxGeometry x="30" y="600" width="30" height="60" as="geometry"/></mxCell><mxCell id="9" value="manager SMS Template" style="ellipse;whiteSpace=wrap;html=1;" vertex="1" parent="1"><mxGeometry x="320" y="220" width="120" height="80" as="geometry"/></mxCell><mxCell id="10" value="manager Mail Template" style="ellipse;whiteSpace=wrap;html=1;" vertex="1" parent="1"><mxGeometry x="330" y="340" width="120" height="80" as="geometry"/></mxCell><mxCell id="11" value="registry Trigger" style="ellipse;whiteSpace=wrap;html=1;" vertex="1" parent="1"><mxGeometry x="320" y="460" width="120" height="80" as="geometry"/></mxCell><mxCell id="13" value="Notify User" style="shape=umlActor;verticalLabelPosition=bottom;verticalAlign=top;html=1;outlineConnect=0;" vertex="1" parent="1"><mxGeometry x="30" y="470" width="30" height="60" as="geometry"/></mxCell><mxCell id="17" value="" style="endArrow=none;html=1;rounded=0;" edge="1" parent="1" source="13" target="9"><mxGeometry width="50" height="50" relative="1" as="geometry"><mxPoint x="130" y="540" as="sourcePoint"/><mxPoint x="180" y="490" as="targetPoint"/></mxGeometry></mxCell><mxCell id="18" value="" style="endArrow=none;html=1;rounded=0;" edge="1" parent="1" source="13" target="10"><mxGeometry width="50" height="50" relative="1" as="geometry"><mxPoint x="140" y="550" as="sourcePoint"/><mxPoint x="190" y="500" as="targetPoint"/></mxGeometry></mxCell><mxCell id="19" value="" style="endArrow=none;html=1;rounded=0;" edge="1" parent="1" source="13" target="11"><mxGeometry width="50" height="50" relative="1" as="geometry"><mxPoint x="120" y="600" as="sourcePoint"/><mxPoint x="170" y="550" as="targetPoint"/></mxGeometry></mxCell><mxCell id="20" value="add Kafka Trigger" style="ellipse;whiteSpace=wrap;html=1;" vertex="1" parent="1"><mxGeometry x="520" y="380" width="120" height="80" as="geometry"/></mxCell><mxCell id="21" value="" style="endArrow=classic;html=1;rounded=0;" edge="1" parent="1" source="11" target="20"><mxGeometry width="50" height="50" relative="1" as="geometry"><mxPoint x="500" y="580" as="sourcePoint"/><mxPoint x="550" y="530" as="targetPoint"/></mxGeometry></mxCell><mxCell id="22" value="&amp;lt;&amp;lt;extends&amp;gt;&amp;gt;" style="edgeLabel;html=1;align=center;verticalAlign=middle;resizable=0;points=[];" vertex="1" connectable="0" parent="21"><mxGeometry x="-0.0923" relative="1" as="geometry"><mxPoint y="-1" as="offset"/></mxGeometry></mxCell><mxCell id="23" value="add API Trigger" style="ellipse;whiteSpace=wrap;html=1;" vertex="1" parent="1"><mxGeometry x="530" y="505" width="120" height="80" as="geometry"/></mxCell><mxCell id="24" value="" style="endArrow=classic;html=1;rounded=0;" edge="1" parent="1" source="11" target="23"><mxGeometry width="50" height="50" relative="1" as="geometry"><mxPoint x="460" y="590" as="sourcePoint"/><mxPoint x="510" y="540" as="targetPoint"/></mxGeometry></mxCell><mxCell id="25" value="&amp;lt;&amp;lt;extends&amp;gt;&amp;gt;" style="edgeLabel;html=1;align=center;verticalAlign=middle;resizable=0;points=[];" vertex="1" connectable="0" parent="24"><mxGeometry x="-0.147" y="1" relative="1" as="geometry"><mxPoint as="offset"/></mxGeometry></mxCell></root></mxGraphModel></diagram></mxfile>